<svg version="1.1" viewBox="0.0 0.0 960.0 720.0" fill="none" stroke="none" stroke-linecap="square" stroke-miterlimit="10" xmlns:xlink="http://www.w3.org/1999/xlink" xmlns="http://www.w3.org/2000/svg"><clipPath id="p.0"><path d="m0 0l960.0 0l0 720.0l-960.0 0l0 -720.0z" clip-rule="nonzero"/></clipPath><g clip-path="url(#p.0)"><path fill="#000000" fill-opacity="0.0" d="m0 0l960.0 0l0 720.0l-960.0 0z" fill-rule="evenodd"/><path fill="#a4c2f4" d="m218.72441 421.2126l0 0c0 -121.398254 139.72945 -219.811 312.09448 -219.811l0 0c172.36499 0 312.09448 98.41275 312.09448 219.811l0 0c0 121.398315 -139.72949 219.81104 -312.09448 219.81104l0 0c-172.36505 0 -312.09448 -98.41272 -312.09448 -219.81104z" fill-rule="evenodd"/><path stroke="#a4c2f4" stroke-width="1.0" stroke-linejoin="round" stroke-linecap="butt" d="m218.72441 421.2126l0 0c0 -121.398254 139.72945 -219.811 312.09448 -219.811l0 0c172.36499 0 312.09448 98.41275 312.09448 219.811l0 0c0 121.398315 -139.72949 219.81104 -312.09448 219.81104l0 0c-172.36505 0 -312.09448 -98.41272 -312.09448 -219.81104z" fill-rule="evenodd"/><path fill="#ffe599" d="m323.49606 483.97375l0 0c0 -80.64227 92.821594 -146.01575 207.32285 -146.01575l0 0c114.50122 0 207.32281 65.373474 207.32281 146.01575l0 0c0 80.64227 -92.821594 146.01575 -207.32281 146.01575l0 0c-114.50125 0 -207.32285 -65.373474 -207.32285 -146.01575z" fill-rule="evenodd"/><path stroke="#ffe599" stroke-width="1.0" stroke-linejoin="round" stroke-linecap="butt" d="m323.49606 483.97375l0 0c0 -80.64227 92.821594 -146.01575 207.32285 -146.01575l0 0c114.50122 0 207.32281 65.373474 207.32281 146.01575l0 0c0 80.64227 -92.821594 146.01575 -207.32281 146.01575l0 0c-114.50125 0 -207.32285 -65.373474 -207.32285 -146.01575z" fill-rule="evenodd"/><path fill="#ea9999" d="m400.40945 530.82153l0 0c0 -50.723236 58.38629 -91.84253 130.40945 -91.84253l0 0c72.02313 0 130.40942 41.119293 130.40942 91.84253l0 0c0 50.723206 -58.38629 91.84253 -130.40942 91.84253l0 0c-72.02316 0 -130.40945 -41.119324 -130.40945 -91.84253z" fill-rule="evenodd"/><path stroke="#ea9999" stroke-width="1.0" stroke-linejoin="round" stroke-linecap="butt" d="m400.40945 530.82153l0 0c0 -50.723236 58.38629 -91.84253 130.40945 -91.84253l0 0c72.02313 0 130.40942 41.119293 130.40942 91.84253l0 0c0 50.723206 -58.38629 91.84253 -130.40942 91.84253l0 0c-72.02316 0 -130.40945 -41.119324 -130.40945 -91.84253z" fill-rule="evenodd"/><path fill="#000000" d="m497.3713 524.4215l0 -21.59375l8.34375 0l0 2.15625l-5.328125 0l0 7.203125l4.140625 0l0 2.125l-4.140625 0l0 10.109375l-3.015625 0zm10.188202 0l0 -15.40625l2.859375 0l0 1.515625q0.765625 -0.71875 1.703125 -1.21875q0.9375 -0.515625 2.046875 -0.515625q0.9375 0 1.421875 0.484375q0.5 0.484375 0.703125 1.203125q0.203125 0.71875 0.203125 1.46875l0 12.46875l-2.859375 0l0 -11.65625q0 -0.8125 -0.25 -1.265625q-0.234375 -0.453125 -0.96875 -0.453125q-0.484375 0 -1.015625 0.28125q-0.515625 0.265625 -0.984375 0.671875l0 12.421875l-2.859375 0zm17.467651 0.234375q-2.1875 0 -3.5 -0.84375q-1.296875 -0.859375 -1.859375 -2.4375q-0.5625 -1.59375 -0.5625 -3.71875l0 -8.1875q0 -2.140625 0.5625 -3.671875q0.578125 -1.53125 1.875 -2.34375q1.296875 -0.8125 3.484375 -0.8125q2.1875 0 3.453125 0.828125q1.28125 0.828125 1.859375 2.34375q0.578125 1.515625 0.578125 3.65625l0 8.203125q0 2.109375 -0.578125 3.6875q-0.578125 1.5625 -1.859375 2.4375q-1.265625 0.859375 -3.453125 0.859375zm0 -2.359375q1.1875 0 1.796875 -0.5q0.625 -0.5 0.828125 -1.390625q0.21875 -0.890625 0.21875 -2.09375l0 -9.453125q0 -1.203125 -0.21875 -2.0625q-0.203125 -0.875 -0.828125 -1.34375q-0.609375 -0.46875 -1.796875 -0.46875q-1.203125 0 -1.828125 0.46875q-0.625 0.46875 -0.84375 1.34375q-0.21875 0.859375 -0.21875 2.0625l0 9.453125q0 1.203125 0.21875 2.09375q0.21875 0.890625 0.84375 1.390625q0.625 0.5 1.828125 0.5zm8.602051 2.125l0 -15.40625l2.859375 0l0 1.515625q0.765625 -0.71875 1.703125 -1.21875q0.9375 -0.515625 2.046875 -0.515625q0.9375 0 1.421875 0.484375q0.5 0.484375 0.703125 1.203125q0.203125 0.71875 0.203125 1.46875l0 12.46875l-2.859375 0l0 -11.65625q0 -0.8125 -0.25 -1.265625q-0.234375 -0.453125 -0.96875 -0.453125q-0.484375 0 -1.015625 0.28125q-0.515625 0.265625 -0.984375 0.671875l0 12.421875l-2.859375 0zm15.920837 0.21875q-1.890625 0 -2.875 -0.765625q-0.96875 -0.765625 -1.3125 -2.140625q-0.328125 -1.390625 -0.328125 -3.234375l0 -3.546875q0 -1.9375 0.34375 -3.3125q0.359375 -1.375 1.328125 -2.109375q0.96875 -0.734375 2.84375 -0.734375q1.671875 0 2.59375 0.546875q0.921875 0.546875 1.265625 1.625q0.34375 1.078125 0.34375 2.6875l0 0.90625l-2.578125 0l0 -0.9375q0 -1.015625 -0.140625 -1.59375q-0.125 -0.59375 -0.484375 -0.859375q-0.34375 -0.265625 -0.984375 -0.265625q-0.6875 0 -1.0625 0.328125q-0.375 0.3125 -0.5 1.078125q-0.109375 0.75 -0.109375 2.0625l0 4.84375q0 1.984375 0.375 2.65625q0.375 0.65625 1.328125 0.65625q0.71875 0 1.046875 -0.328125q0.34375 -0.34375 0.4375 -0.953125q0.09375 -0.609375 0.09375 -1.390625l0 -1.25l2.578125 0l0 1.0625q0 1.546875 -0.359375 2.671875q-0.359375 1.125 -1.28125 1.71875q-0.921875 0.578125 -2.5625 0.578125zm10.869202 0q-1.8125 0 -2.796875 -0.703125q-0.984375 -0.71875 -1.375 -2.078125q-0.390625 -1.375 -0.390625 -3.375l0 -3.53125q0 -2.046875 0.40625 -3.40625q0.40625 -1.359375 1.390625 -2.046875q1.0 -0.703125 2.765625 -0.703125q1.953125 0 2.859375 0.8125q0.921875 0.796875 1.21875 2.296875q0.296875 1.5 0.296875 3.609375l0 1.25l-6.078125 0l0 3.09375q0 0.9375 0.171875 1.53125q0.171875 0.578125 0.5625 0.859375q0.390625 0.28125 1.0 0.28125q0.640625 0 0.96875 -0.296875q0.328125 -0.3125 0.453125 -0.890625q0.125 -0.578125 0.125 -1.34375l0 -0.9375l2.765625 0l0 0.59375q0 2.3125 -0.984375 3.65625q-0.984375 1.328125 -3.359375 1.328125zm-1.703125 -9.421875l3.28125 0l0 -1.375q0 -0.96875 -0.109375 -1.609375q-0.109375 -0.65625 -0.453125 -0.984375q-0.328125 -0.34375 -1.046875 -0.34375q-0.6875 0 -1.046875 0.328125q-0.359375 0.3125 -0.5 1.078125q-0.125 0.75 -0.125 2.09375l0 0.8125z" fill-rule="nonzero"/><path fill="#000000" d="m500.64935 556.64026q-1.890625 0 -2.875 -0.765625q-0.96875 -0.765625 -1.3125 -2.140625q-0.328125 -1.390625 -0.328125 -3.234375l0 -3.546875q0 -1.9375 0.34375 -3.3125q0.359375 -1.375 1.328125 -2.109375q0.96875 -0.734375 2.84375 -0.734375q1.671875 0 2.59375 0.546875q0.921875 0.546875 1.265625 1.625q0.34375 1.078125 0.34375 2.6875l0 0.90625l-2.578125 0l0 -0.9375q0 -1.015625 -0.140625 -1.59375q-0.125 -0.59375 -0.484375 -0.859375q-0.34375 -0.265625 -0.984375 -0.265625q-0.6875 0 -1.0625 0.328125q-0.375 0.3125 -0.5 1.078125q-0.109375 0.75 -0.109375 2.0625l0 4.84375q0 1.984375 0.375 2.65625q0.375 0.65625 1.328125 0.65625q0.71875 0 1.046875 -0.328125q0.34375 -0.34375 0.4375 -0.953125q0.09375 -0.609375 0.09375 -1.390625l0 -1.25l2.578125 0l0 1.0625q0 1.546875 -0.359375 2.671875q-0.359375 1.125 -1.28125 1.71875q-0.921875 0.578125 -2.5625 0.578125zm10.837952 0q-1.703125 0 -2.6875 -0.6875q-0.984375 -0.703125 -1.40625 -1.984375q-0.40625 -1.28125 -0.40625 -3.015625l0 -4.46875q0 -1.734375 0.40625 -3.015625q0.421875 -1.28125 1.40625 -1.96875q0.984375 -0.703125 2.6875 -0.703125q1.71875 0 2.6875 0.703125q0.96875 0.6875 1.375 1.96875q0.421875 1.28125 0.421875 3.015625l0 4.46875q0 1.734375 -0.421875 3.015625q-0.40625 1.28125 -1.375 1.984375q-0.96875 0.6875 -2.6875 0.6875zm0 -2.109375q0.828125 0 1.15625 -0.484375q0.34375 -0.484375 0.40625 -1.265625q0.0625 -0.78125 0.0625 -1.640625l0 -4.828125q0 -0.875 -0.0625 -1.640625q-0.0625 -0.78125 -0.40625 -1.265625q-0.328125 -0.5 -1.15625 -0.5q-0.828125 0 -1.171875 0.5q-0.34375 0.484375 -0.40625 1.265625q-0.0625 0.765625 -0.0625 1.640625l0 4.828125q0 0.859375 0.0625 1.640625q0.0625 0.78125 0.40625 1.265625q0.34375 0.484375 1.171875 0.484375zm7.0944824 1.890625l0 -15.40625l2.859375 0l0 1.515625q0.765625 -0.71875 1.703125 -1.21875q0.9375 -0.515625 2.046875 -0.515625q0.9375 0 1.421875 0.484375q0.5 0.484375 0.703125 1.203125q0.203125 0.71875 0.203125 1.46875l0 12.46875l-2.859375 0l0 -11.65625q0 -0.8125 -0.25 -1.265625q-0.234375 -0.453125 -0.96875 -0.453125q-0.484375 0 -1.015625 0.28125q-0.515625 0.265625 -0.984375 0.671875l0 12.421875l-2.859375 0zm15.811462 0.21875q-1.203125 0 -1.9375 -0.453125q-0.734375 -0.453125 -1.0625 -1.28125q-0.328125 -0.828125 -0.328125 -1.953125l0 -10.046875l-1.625 0l0 -1.890625l1.625 0l0 -4.5l2.84375 0l0 4.5l2.484375 0l0 1.890625l-2.484375 0l0 9.859375q0 0.90625 0.296875 1.296875q0.296875 0.390625 1.125 0.390625q0.203125 0 0.484375 -0.03125q0.28125 -0.03125 0.546875 -0.046875l0 2.09375q-0.53125 0.09375 -0.984375 0.125q-0.453125 0.046875 -0.984375 0.046875zm8.366333 0q-1.8125 0 -2.796875 -0.703125q-0.984375 -0.71875 -1.375 -2.078125q-0.390625 -1.375 -0.390625 -3.375l0 -3.53125q0 -2.046875 0.40625 -3.40625q0.40625 -1.359375 1.390625 -2.046875q1.0 -0.703125 2.765625 -0.703125q1.953125 0 2.859375 0.8125q0.921875 0.796875 1.21875 2.296875q0.296875 1.5 0.296875 3.609375l0 1.25l-6.078125 0l0 3.09375q0 0.9375 0.171875 1.53125q0.171875 0.578125 0.5625 0.859375q0.390625 0.28125 1.0 0.28125q0.640625 0 0.96875 -0.296875q0.328125 -0.3125 0.453125 -0.890625q0.125 -0.578125 0.125 -1.34375l0 -0.9375l2.765625 0l0 0.59375q0 2.3125 -0.984375 3.65625q-0.984375 1.328125 -3.359375 1.328125zm-1.703125 -9.421875l3.28125 0l0 -1.375q0 -0.96875 -0.109375 -1.609375q-0.109375 -0.65625 -0.453125 -0.984375q-0.328125 -0.34375 -1.046875 -0.34375q-0.6875 0 -1.046875 0.328125q-0.359375 0.3125 -0.5 1.078125q-0.125 0.75 -0.125 2.09375l0 0.8125zm7.243286 9.203125l3.46875 -8.109375l-3.390625 -7.296875l2.71875 0l2.265625 4.875l2.0 -4.875l2.8125 0l-3.53125 7.65625l3.578125 7.75l-2.71875 0l-2.421875 -5.21875l-2.078125 5.21875l-2.703125 0zm15.681763 0.21875q-1.203125 0 -1.9375 -0.453125q-0.734375 -0.453125 -1.0625 -1.28125q-0.328125 -0.828125 -0.328125 -1.953125l0 -10.046875l-1.625 0l0 -1.890625l1.625 0l0 -4.5l2.84375 0l0 4.5l2.484375 0l0 1.890625l-2.484375 0l0 9.859375q0 0.90625 0.296875 1.296875q0.296875 0.390625 1.125 0.390625q0.203125 0 0.484375 -0.03125q0.28125 -0.03125 0.546875 -0.046875l0 2.09375q-0.53125 0.09375 -0.984375 0.125q-0.453125 0.046875 -0.984375 0.046875z" fill-rule="nonzero"/><path fill="#000000" fill-opacity="0.0" d="m441.73227 352.65353l178.17325 0l0 69.79529l-178.17325 0z" fill-rule="evenodd"/><path fill="#000000" d="m502.66254 387.25354l0 -21.59375l8.34375 0l0 2.15625l-5.328125 0l0 7.203125l4.140625 0l0 2.125l-4.140625 0l0 10.109375l-3.015625 0zm10.188171 0l0 -15.40625l2.859375 0l0 1.515625q0.765625 -0.71875 1.703125 -1.21875q0.9375 -0.515625 2.046875 -0.515625q0.9375 0 1.421875 0.484375q0.5 0.484375 0.703125 1.203125q0.203125 0.71875 0.203125 1.46875l0 12.46875l-2.859375 0l0 -11.65625q0 -0.8125 -0.25 -1.265625q-0.234375 -0.453125 -0.96875 -0.453125q-0.484375 0 -1.015625 0.28125q-0.515625 0.265625 -0.984375 0.671875l0 12.421875l-2.859375 0zm11.889587 0l0.40625 -21.59375l2.953125 0l3.8125 17.515625l3.84375 -17.515625l2.921875 0l0.40625 21.59375l-2.421875 0l-0.25 -15.671875l-3.640625 15.671875l-1.71875 0l-3.625 -15.671875l-0.234375 15.671875l-2.453125 0zm19.624268 0.21875q-0.90625 0 -1.421875 -0.484375q-0.5 -0.484375 -0.703125 -1.203125q-0.203125 -0.71875 -0.203125 -1.46875l0 -12.46875l2.859375 0l0 11.625q0 0.828125 0.234375 1.296875q0.25 0.453125 0.984375 0.453125q0.484375 0 1.0 -0.265625q0.53125 -0.28125 1.0 -0.6875l0 -12.421875l2.859375 0l0 15.40625l-2.859375 0l0 -1.515625q-0.75 0.71875 -1.703125 1.234375q-0.9375 0.5 -2.046875 0.5zm13.619385 0q-1.203125 0 -1.9375 -0.453125q-0.734375 -0.453125 -1.0625 -1.28125q-0.328125 -0.828125 -0.328125 -1.953125l0 -10.046875l-1.625 0l0 -1.890625l1.625 0l0 -4.5l2.84375 0l0 4.5l2.484375 0l0 1.890625l-2.484375 0l0 9.859375q0 0.90625 0.296875 1.296875q0.296875 0.390625 1.125 0.390625q0.203125 0 0.484375 -0.03125q0.28125 -0.03125 0.546875 -0.046875l0 2.09375q-0.53125 0.09375 -0.984375 0.125q-0.453125 0.046875 -0.984375 0.046875z" fill-rule="nonzero"/><path fill="#000000" d="m471.03476 419.4879q-1.453125 0 -2.515625 -0.625q-1.046875 -0.625 -1.59375 -1.71875q-0.546875 -1.09375 -0.546875 -2.5q0 -2.046875 0.921875 -3.546875q0.921875 -1.515625 2.21875 -2.6875q-0.46875 -0.96875 -1.015625 -1.9375q-0.546875 -0.96875 -0.9375 -2.015625q-0.390625 -1.0625 -0.390625 -2.203125q0 -1.453125 0.5625 -2.515625q0.5625 -1.0625 1.59375 -1.65625q1.046875 -0.609375 2.453125 -0.609375q1.3125 0 2.328125 0.484375q1.03125 0.484375 1.640625 1.375q0.625 0.890625 0.625 2.140625q0 1.421875 -0.65625 2.71875q-0.65625 1.28125 -1.59375 2.390625q-0.921875 1.109375 -1.8125 1.953125l3.265625 5.125q0.28125 -0.5625 0.484375 -1.265625q0.203125 -0.71875 0.34375 -1.515625q0.15625 -0.796875 0.234375 -1.546875l2.828125 0q0 1.046875 -0.3125 2.203125q-0.3125 1.140625 -0.796875 2.171875q-0.46875 1.015625 -0.96875 1.734375q0.34375 0.421875 0.890625 0.765625q0.5625 0.328125 1.203125 0.328125l0 2.9375q-0.109375 0 -0.203125 0q-0.078125 0 -0.171875 0q-0.765625 -0.03125 -1.390625 -0.359375q-0.609375 -0.34375 -1.109375 -0.8125q-0.484375 -0.484375 -0.9375 -0.90625q-0.71875 0.90625 -1.875 1.5q-1.15625 0.59375 -2.765625 0.59375zm0 -2.359375q1.015625 0 1.703125 -0.5q0.703125 -0.5 1.203125 -1.109375l-3.296875 -5.09375q-0.640625 0.828125 -1.03125 1.9375q-0.390625 1.109375 -0.390625 2.28125q0 0.609375 0.15625 1.1875q0.171875 0.5625 0.5625 0.9375q0.40625 0.359375 1.09375 0.359375zm0.296875 -10.140625q0.5625 -0.65625 1.046875 -1.5625q0.5 -0.90625 0.8125 -1.9375q0.328125 -1.03125 0.328125 -2.015625q0 -0.765625 -0.484375 -1.203125q-0.46875 -0.453125 -1.25 -0.453125q-0.953125 0 -1.359375 0.75q-0.390625 0.75 -0.390625 1.6875q0 1.21875 0.40625 2.4375q0.421875 1.203125 0.890625 2.296875zm11.0911255 12.265625l0 -15.40625l2.640625 0l0 1.46875q0.765625 -0.890625 1.703125 -1.3125q0.9375 -0.421875 1.921875 -0.421875q0.859375 0 1.53125 0.421875q0.6875 0.421875 0.96875 1.515625q0.828125 -1.0 1.796875 -1.46875q0.984375 -0.46875 2.046875 -0.46875q0.75 0 1.359375 0.359375q0.609375 0.359375 0.984375 1.15625q0.375 0.78125 0.375 2.046875l0 12.109375l-2.609375 0l0 -11.921875q0 -1.109375 -0.359375 -1.5q-0.359375 -0.390625 -0.96875 -0.390625q-0.59375 0 -1.234375 0.34375q-0.640625 0.328125 -1.171875 0.90625q0 0.109375 0 0.21875q0 0.109375 0 0.234375l0 12.109375l-2.609375 0l0 -11.921875q0 -1.109375 -0.359375 -1.5q-0.359375 -0.390625 -0.96875 -0.390625q-0.59375 0 -1.21875 0.34375q-0.625 0.328125 -1.1875 0.90625l0 12.5625l-2.640625 0zm20.34494 0.21875q-0.90625 0 -1.421875 -0.484375q-0.5 -0.484375 -0.703125 -1.203125q-0.203125 -0.71875 -0.203125 -1.46875l0 -12.46875l2.859375 0l0 11.625q0 0.828125 0.234375 1.296875q0.25 0.453125 0.984375 0.453125q0.484375 0 1.0 -0.265625q0.53125 -0.28125 1.0 -0.6875l0 -12.421875l2.859375 0l0 15.40625l-2.859375 0l0 -1.515625q-0.75 0.71875 -1.703125 1.234375q-0.9375 0.5 -2.046875 0.5zm13.619324 0q-1.203125 0 -1.9375 -0.453125q-0.734375 -0.453125 -1.0625 -1.28125q-0.328125 -0.828125 -0.328125 -1.953125l0 -10.046875l-1.6249695 0l0 -1.890625l1.6249695 0l0 -4.5l2.84375 0l0 4.5l2.484375 0l0 1.890625l-2.484375 0l0 9.859375q0 0.90625 0.296875 1.296875q0.296875 0.390625 1.125 0.390625q0.203125 0 0.484375 -0.03125q0.28125 -0.03125 0.546875 -0.046875l0 2.09375q-0.53125 0.09375 -0.984375 0.125q-0.453125 0.046875 -0.984375 0.046875zm14.423767 0q-1.890625 0 -2.875 -0.765625q-0.96875 -0.765625 -1.3125 -2.140625q-0.328125 -1.390625 -0.328125 -3.234375l0 -3.546875q0 -1.9375 0.34375 -3.3125q0.359375 -1.375 1.328125 -2.109375q0.96875 -0.734375 2.84375 -0.734375q1.671875 0 2.59375 0.546875q0.921875 0.546875 1.265625 1.625q0.34375 1.078125 0.34375 2.6875l0 0.90625l-2.578125 0l0 -0.9375q0 -1.015625 -0.140625 -1.59375q-0.125 -0.59375 -0.484375 -0.859375q-0.34375 -0.265625 -0.984375 -0.265625q-0.6875 0 -1.0625 0.328125q-0.375 0.3125 -0.5 1.078125q-0.109375 0.75 -0.109375 2.0625l0 4.84375q0 1.984375 0.375 2.65625q0.375 0.65625 1.328125 0.65625q0.71875 0 1.046875 -0.328125q0.34375 -0.34375 0.4375 -0.953125q0.09375 -0.609375 0.09375 -1.390625l0 -1.25l2.578125 0l0 1.0625q0 1.546875 -0.359375 2.671875q-0.359375 1.125 -1.28125 1.71875q-0.921875 0.578125 -2.5625 0.578125zm10.837952 0q-1.703125 0 -2.6875 -0.6875q-0.984375 -0.703125 -1.40625 -1.984375q-0.40625 -1.28125 -0.40625 -3.015625l0 -4.46875q0 -1.734375 0.40625 -3.015625q0.421875 -1.28125 1.40625 -1.96875q0.984375 -0.703125 2.6875 -0.703125q1.71875 0 2.6875 0.703125q0.96875 0.6875 1.375 1.96875q0.421875 1.28125 0.421875 3.015625l0 4.46875q0 1.734375 -0.421875 3.015625q-0.40625 1.28125 -1.375 1.984375q-0.96875 0.6875 -2.6875 0.6875zm0 -2.109375q0.828125 0 1.15625 -0.484375q0.34375 -0.484375 0.40625 -1.265625q0.0625 -0.78125 0.0625 -1.640625l0 -4.828125q0 -0.875 -0.0625 -1.640625q-0.0625 -0.78125 -0.40625 -1.265625q-0.328125 -0.5 -1.15625 -0.5q-0.828125 0 -1.171875 0.5q-0.34375 0.484375 -0.40625 1.265625q-0.0625 0.765625 -0.0625 1.640625l0 4.828125q0 0.859375 0.0625 1.640625q0.0625 0.78125 0.40625 1.265625q0.34375 0.484375 1.171875 0.484375zm7.0944824 1.890625l0 -15.40625l2.859375 0l0 1.515625q0.765625 -0.71875 1.703125 -1.21875q0.9375 -0.515625 2.046875 -0.515625q0.9375 0 1.421875 0.484375q0.5 0.484375 0.703125 1.203125q0.203125 0.71875 0.203125 1.46875l0 12.46875l-2.859375 0l0 -11.65625q0 -0.8125 -0.25 -1.265625q-0.234375 -0.453125 -0.96875 -0.453125q-0.484375 0 -1.015625 0.28125q-0.515625 0.265625 -0.984375 0.671875l0 12.421875l-2.859375 0zm15.811462 0.21875q-1.203125 0 -1.9375 -0.453125q-0.734375 -0.453125 -1.0625 -1.28125q-0.328125 -0.828125 -0.328125 -1.953125l0 -10.046875l-1.625 0l0 -1.890625l1.625 0l0 -4.5l2.84375 0l0 4.5l2.484375 0l0 1.890625l-2.484375 0l0 9.859375q0 0.90625 0.296875 1.296875q0.296875 0.390625 1.125 0.390625q0.203125 0 0.484375 -0.03125q0.28125 -0.03125 0.546875 -0.046875l0 2.09375q-0.53125 0.09375 -0.984375 0.125q-0.453125 0.046875 -0.984375 0.046875zm8.366333 0q-1.8125 0 -2.796875 -0.703125q-0.984375 -0.71875 -1.375 -2.078125q-0.390625 -1.375 -0.390625 -3.375l0 -3.53125q0 -2.046875 0.40625 -3.40625q0.40625 -1.359375 1.390625 -2.046875q1.0 -0.703125 2.765625 -0.703125q1.953125 0 2.859375 0.8125q0.921875 0.796875 1.21875 2.296875q0.296875 1.5 0.296875 3.609375l0 1.25l-6.078125 0l0 3.09375q0 0.9375 0.171875 1.53125q0.171875 0.578125 0.5625 0.859375q0.390625 0.28125 1.0 0.28125q0.640625 0 0.96875 -0.296875q0.328125 -0.3125 0.453125 -0.890625q0.125 -0.578125 0.125 -1.34375l0 -0.9375l2.765625 0l0 0.59375q0 2.3125 -0.984375 3.65625q-0.984375 1.328125 -3.359375 1.328125zm-1.703125 -9.421875l3.28125 0l0 -1.375q0 -0.96875 -0.109375 -1.609375q-0.109375 -0.65625 -0.453125 -0.984375q-0.328125 -0.34375 -1.046875 -0.34375q-0.6875 0 -1.046875 0.328125q-0.359375 0.3125 -0.5 1.078125q-0.125 0.75 -0.125 2.09375l0 0.8125zm7.243286 9.203125l3.46875 -8.109375l-3.390625 -7.296875l2.71875 0l2.265625 4.875l2.0 -4.875l2.8125 0l-3.53125 7.65625l3.578125 7.75l-2.71875 0l-2.421875 -5.21875l-2.078125 5.21875l-2.703125 0zm15.681763 0.21875q-1.203125 0 -1.9375 -0.453125q-0.734375 -0.453125 -1.0625 -1.28125q-0.328125 -0.828125 -0.328125 -1.953125l0 -10.046875l-1.625 0l0 -1.890625l1.625 0l0 -4.5l2.84375 0l0 4.5l2.484375 0l0 1.890625l-2.484375 0l0 9.859375q0 0.90625 0.296875 1.296875q0.296875 0.390625 1.125 0.390625q0.203125 0 0.484375 -0.03125q0.28125 -0.03125 0.546875 -0.046875l0 2.09375q-0.53125 0.09375 -0.984375 0.125q-0.453125 0.046875 -0.984375 0.046875z" fill-rule="nonzero"/><path fill="#000000" fill-opacity="0.0" d="m466.99213 248.87401l127.653564 0l0 64.28346l-127.653564 0z" fill-rule="evenodd"/><path fill="#000000" d="m521.42847 283.474l0 -21.59375l8.34375 0l0 2.15625l-5.328125 0l0 7.203125l4.140625 0l0 2.125l-4.140625 0l0 10.109375l-3.015625 0zm10.188171 0l0 -15.40625l2.859375 0l0 1.515625q0.765625 -0.71875 1.703125 -1.21875q0.9375 -0.515625 2.046875 -0.515625q0.9375 0 1.421875 0.484375q0.5 0.484375 0.703125 1.203125q0.203125 0.71875 0.203125 1.46875l0 12.46875l-2.859375 0l0 -11.65625q0 -0.8125 -0.25 -1.265625q-0.234375 -0.453125 -0.96875 -0.453125q-0.484375 0 -1.015625 0.28125q-0.515625 0.265625 -0.984375 0.671875l0 12.421875l-2.859375 0z" fill-rule="nonzero"/><path fill="#000000" d="m493.11942 315.70837q-1.453125 0 -2.515625 -0.625q-1.046875 -0.625 -1.59375 -1.71875q-0.546875 -1.09375 -0.546875 -2.5q0 -2.046875 0.921875 -3.546875q0.921875 -1.515625 2.21875 -2.6875q-0.46875 -0.96875 -1.015625 -1.9375q-0.546875 -0.96875 -0.9375 -2.015625q-0.390625 -1.0625 -0.390625 -2.203125q0 -1.453125 0.5625 -2.515625q0.5625 -1.0625 1.59375 -1.65625q1.046875 -0.609375 2.453125 -0.609375q1.3125 0 2.328125 0.484375q1.03125 0.484375 1.640625 1.375q0.625 0.890625 0.625 2.140625q0 1.421875 -0.65625 2.71875q-0.65625 1.28125 -1.59375 2.390625q-0.921875 1.109375 -1.8125 1.953125l3.265625 5.125q0.28125 -0.5625 0.484375 -1.265625q0.203125 -0.71875 0.34375 -1.515625q0.15625 -0.796875 0.234375 -1.546875l2.828125 0q0 1.046875 -0.3125 2.203125q-0.3125 1.140625 -0.796875 2.171875q-0.46875 1.015625 -0.96875 1.734375q0.34375 0.421875 0.890625 0.765625q0.5625 0.328125 1.203125 0.328125l0 2.9375q-0.109375 0 -0.203125 0q-0.078125 0 -0.171875 0q-0.765625 -0.03125 -1.390625 -0.359375q-0.609375 -0.34375 -1.109375 -0.8125q-0.484375 -0.484375 -0.9375 -0.90625q-0.71875 0.90625 -1.875 1.5q-1.15625 0.59375 -2.765625 0.59375zm0 -2.359375q1.015625 0 1.703125 -0.5q0.703125 -0.5 1.203125 -1.109375l-3.296875 -5.09375q-0.640625 0.828125 -1.03125 1.9375q-0.390625 1.109375 -0.390625 2.28125q0 0.609375 0.15625 1.1875q0.171875 0.5625 0.5625 0.9375q0.40625 0.359375 1.09375 0.359375zm0.296875 -10.140625q0.5625 -0.65625 1.046875 -1.5625q0.5 -0.90625 0.8125 -1.9375q0.328125 -1.03125 0.328125 -2.015625q0 -0.765625 -0.484375 -1.203125q-0.46875 -0.453125 -1.25 -0.453125q-0.953125 0 -1.359375 0.75q-0.390625 0.75 -0.390625 1.6875q0 1.21875 0.40625 2.4375q0.421875 1.203125 0.890625 2.296875zm15.3098755 12.484375q-1.890625 0 -2.875 -0.765625q-0.96875 -0.765625 -1.3125 -2.140625q-0.328125 -1.390625 -0.328125 -3.234375l0 -3.546875q0 -1.9375 0.34375 -3.3125q0.359375 -1.375 1.328125 -2.109375q0.96875 -0.734375 2.84375 -0.734375q1.671875 0 2.59375 0.546875q0.9218445 0.546875 1.2655945 1.625q0.34375 1.078125 0.34375 2.6875l0 0.90625l-2.5780945 0l0 -0.9375q0 -1.015625 -0.140625 -1.59375q-0.125 -0.59375 -0.484375 -0.859375q-0.34375 -0.265625 -0.984375 -0.265625q-0.6875 0 -1.0625 0.328125q-0.375 0.3125 -0.5 1.078125q-0.109375 0.75 -0.109375 2.0625l0 4.84375q0 1.984375 0.375 2.65625q0.375 0.65625 1.328125 0.65625q0.71875 0 1.046875 -0.328125q0.34375 -0.34375 0.4375 -0.953125q0.09375 -0.609375 0.09375 -1.390625l0 -1.25l2.5780945 0l0 1.0625q0 1.546875 -0.359375 2.671875q-0.359375 1.125 -1.2812195 1.71875q-0.921875 0.578125 -2.5625 0.578125zm10.837982 0q-1.703125 0 -2.6875 -0.6875q-0.984375 -0.703125 -1.40625 -1.984375q-0.40625 -1.28125 -0.40625 -3.015625l0 -4.46875q0 -1.734375 0.40625 -3.015625q0.421875 -1.28125 1.40625 -1.96875q0.984375 -0.703125 2.6875 -0.703125q1.71875 0 2.6875 0.703125q0.96875 0.6875 1.375 1.96875q0.421875 1.28125 0.421875 3.015625l0 4.46875q0 1.734375 -0.421875 3.015625q-0.40625 1.28125 -1.375 1.984375q-0.96875 0.6875 -2.6875 0.6875zm0 -2.109375q0.828125 0 1.15625 -0.484375q0.34375 -0.484375 0.40625 -1.265625q0.0625 -0.78125 0.0625 -1.640625l0 -4.828125q0 -0.875 -0.0625 -1.640625q-0.0625 -0.78125 -0.40625 -1.265625q-0.328125 -0.5 -1.15625 -0.5q-0.828125 0 -1.171875 0.5q-0.34375 0.484375 -0.40625 1.265625q-0.0625 0.765625 -0.0625 1.640625l0 4.828125q0 0.859375 0.0625 1.640625q0.0625 0.78125 0.40625 1.265625q0.34375 0.484375 1.171875 0.484375zm7.0944824 1.890625l0 -15.40625l2.859375 0l0 1.515625q0.765625 -0.71875 1.703064 -1.21875q0.9375 -0.515625 2.046875 -0.515625q0.9375 0 1.421875 0.484375q0.5 0.484375 0.703125 1.203125q0.203125 0.71875 0.203125 1.46875l0 12.46875l-2.859375 0l0 -11.65625q0 -0.8125 -0.25 -1.265625q-0.234375 -0.453125 -0.96875 -0.453125q-0.484375 0 -1.015564 0.28125q-0.515625 0.265625 -0.984375 0.671875l0 12.421875l-2.859375 0zm15.811401 0.21875q-1.203125 0 -1.9375 -0.453125q-0.734375 -0.453125 -1.0625 -1.28125q-0.328125 -0.828125 -0.328125 -1.953125l0 -10.046875l-1.625 0l0 -1.890625l1.625 0l0 -4.5l2.84375 0l0 4.5l2.484375 0l0 1.890625l-2.484375 0l0 9.859375q0 0.90625 0.296875 1.296875q0.296875 0.390625 1.125 0.390625q0.203125 0 0.484375 -0.03125q0.28125 -0.03125 0.546875 -0.046875l0 2.09375q-0.53125 0.09375 -0.984375 0.125q-0.453125 0.046875 -0.984375 0.046875zm8.366333 0q-1.8125 0 -2.796875 -0.703125q-0.984375 -0.71875 -1.375 -2.078125q-0.390625 -1.375 -0.390625 -3.375l0 -3.53125q0 -2.046875 0.40625 -3.40625q0.40625 -1.359375 1.390625 -2.046875q1.0 -0.703125 2.765625 -0.703125q1.953125 0 2.859375 0.8125q0.921875 0.796875 1.21875 2.296875q0.296875 1.5 0.296875 3.609375l0 1.25l-6.078125 0l0 3.09375q0 0.9375 0.171875 1.53125q0.171875 0.578125 0.5625 0.859375q0.390625 0.28125 1.0 0.28125q0.640625 0 0.96875 -0.296875q0.328125 -0.3125 0.453125 -0.890625q0.125 -0.578125 0.125 -1.34375l0 -0.9375l2.765625 0l0 0.59375q0 2.3125 -0.984375 3.65625q-0.984375 1.328125 -3.359375 1.328125zm-1.703125 -9.421875l3.28125 0l0 -1.375q0 -0.96875 -0.109375 -1.609375q-0.109375 -0.65625 -0.453125 -0.984375q-0.328125 -0.34375 -1.046875 -0.34375q-0.6875 0 -1.046875 0.328125q-0.359375 0.3125 -0.5 1.078125q-0.125 0.75 -0.125 2.09375l0 0.8125zm7.243286 9.203125l3.46875 -8.109375l-3.390625 -7.296875l2.71875 0l2.265625 4.875l2.0 -4.875l2.8125 0l-3.53125 7.65625l3.578125 7.75l-2.71875 0l-2.421875 -5.21875l-2.078125 5.21875l-2.703125 0zm15.681763 0.21875q-1.203125 0 -1.9375 -0.453125q-0.734375 -0.453125 -1.0625 -1.28125q-0.328125 -0.828125 -0.328125 -1.953125l0 -10.046875l-1.625 0l0 -1.890625l1.625 0l0 -4.5l2.84375 0l0 4.5l2.484375 0l0 1.890625l-2.484375 0l0 9.859375q0 0.90625 0.296875 1.296875q0.296875 0.390625 1.125 0.390625q0.203125 0 0.484375 -0.03125q0.28125 -0.03125 0.546875 -0.046875l0 2.09375q-0.53125 0.09375 -0.984375 0.125q-0.453125 0.046875 -0.984375 0.046875z" fill-rule="nonzero"/></g></svg>